<?xml version="1.0" encoding="UTF-8" standalone="no"?><!DOCTYPE svg PUBLIC "-//W3C//DTD SVG 1.1//EN" "http://www.w3.org/Graphics/SVG/1.1/DTD/svg11.dtd"><svg width="100%" height="100%" viewBox="0 0 63 43" version="1.1" xmlns="http://www.w3.org/2000/svg" xmlns:xlink="http://www.w3.org/1999/xlink" xml:space="preserve" style="fill-rule:evenodd;clip-rule:evenodd;stroke-linejoin:round;stroke-miterlimit:1.41421;"><g><path d="M8.697,21.569c0.687,-1.919 1.524,-3.906 2.506,-5.906c0.191,-0.387 0.384,-0.769 0.579,-1.147l3.04,4.742l-1.87,-6.886c0.639,-1.114 1.297,-2.173 1.966,-3.166l1.288,4.75l0.2,-6.834c1.277,-1.682 2.569,-3.116 3.818,-4.246l-0.602,7.151l2.247,-8.481c2.054,-1.452 3.91,-1.945 5.282,-1.205c1.082,0.585 1.743,1.873 2.006,3.666l-4.275,5.031l4.397,-3.619c0.088,2.606 -0.472,5.965 -1.63,9.657l-5.791,4.182l5.088,-2.103c-0.672,1.854 -1.484,3.769 -2.43,5.697c-2.254,4.588 -4.898,8.487 -7.466,11.247l-3.718,1.97l2.364,-0.613c-2.774,2.571 -5.355,3.675 -7.128,2.718c-2.424,-1.309 -2.734,-6.145 -1.192,-12.283l3.336,4.569l-2.015,-8.891Z" style="fill:url(#_Linear1);"/><path d="M58.428,25.177l-0.916,0l0,-3.559l-1.174,0l0,-0.763l3.263,0l0,0.763l-1.173,0l0,3.559Z" style="fill:#df5dac;fill-rule:nonzero;"/><path d="M62.817,23.977c0,0.39 -0.14,0.697 -0.421,0.922c-0.281,0.224 -0.671,0.337 -1.172,0.337c-0.461,0 -0.869,-0.087 -1.224,-0.26l0,-0.852c0.292,0.13 0.539,0.222 0.741,0.275c0.202,0.053 0.387,0.08 0.554,0.08c0.201,0 0.355,-0.038 0.463,-0.115c0.107,-0.077 0.161,-0.191 0.161,-0.343c0,-0.085 -0.024,-0.16 -0.071,-0.226c-0.047,-0.066 -0.117,-0.13 -0.209,-0.191c-0.091,-0.061 -0.278,-0.158 -0.56,-0.292c-0.264,-0.125 -0.462,-0.244 -0.594,-0.358c-0.132,-0.114 -0.237,-0.247 -0.316,-0.399c-0.079,-0.152 -0.118,-0.329 -0.118,-0.532c0,-0.382 0.129,-0.683 0.388,-0.902c0.26,-0.218 0.618,-0.328 1.075,-0.328c0.224,0 0.439,0.027 0.643,0.08c0.204,0.053 0.417,0.128 0.64,0.225l-0.296,0.712c-0.23,-0.095 -0.421,-0.161 -0.572,-0.198c-0.151,-0.037 -0.299,-0.056 -0.445,-0.056c-0.173,0 -0.306,0.04 -0.399,0.121c-0.092,0.081 -0.139,0.186 -0.139,0.316c0,0.081 0.019,0.151 0.056,0.212c0.038,0.06 0.098,0.118 0.179,0.174c0.082,0.056 0.276,0.157 0.581,0.303c0.404,0.193 0.681,0.387 0.831,0.581c0.149,0.194 0.224,0.432 0.224,0.714Z" style="fill:#df5dac;fill-rule:nonzero;"/><path d="M26.218,10.027c0.488,0.08 0.729,0.371 0.723,0.871c-0.003,0.351 -0.106,0.694 -0.308,1.03c-0.202,0.336 -0.41,0.503 -0.623,0.501c-0.031,-0.001 -0.121,-0.133 -0.271,-0.398c-0.149,-0.264 -0.398,-0.524 -0.746,-0.778c-0.349,-0.254 -0.782,-0.384 -1.3,-0.39c-1.465,-0.015 -2.54,0.674 -3.226,2.069c-1.373,2.815 -2.438,5.421 -3.196,7.817l4.484,0.048c0.854,0.009 1.28,0.089 1.279,0.239c-0.003,0.251 -0.707,0.437 -2.111,0.56c-1.405,0.123 -2.748,0.177 -4.029,0.163c-0.125,0.249 -0.509,1.247 -1.154,2.993c-0.644,1.746 -1.366,3.698 -2.168,5.856c-0.801,2.157 -1.405,3.747 -1.813,4.77c-1.035,2.593 -2.298,4.426 -3.789,5.5c-1.491,1.073 -2.984,1.602 -4.479,1.585c-2.349,-0.025 -3.512,-1.039 -3.491,-3.042c0.008,-0.701 0.144,-1.351 0.41,-1.949c0.266,-0.598 0.506,-0.896 0.719,-0.894c0.122,0.001 0.198,0.077 0.227,0.228c-0.067,0.5 -0.101,0.85 -0.103,1.05c-0.013,1.152 0.252,2.082 0.793,2.789c0.542,0.707 1.209,1.065 2.002,1.073c0.733,0.008 1.483,-0.303 2.253,-0.934c0.769,-0.63 1.481,-1.593 2.136,-2.888c0.873,-1.743 2.055,-4.536 3.545,-8.376c1.491,-3.841 2.441,-6.385 2.851,-7.633c-0.733,0.093 -1.756,0.132 -3.067,0.118c-0.702,-0.008 -1.051,-0.124 -1.049,-0.35c0.002,-0.175 0.202,-0.38 0.602,-0.613c0.399,-0.234 0.72,-0.349 0.964,-0.347l2.929,0.032c1.447,-4.067 2.435,-6.56 2.963,-7.481c0.28,-0.498 0.582,-0.933 0.907,-1.305c0.324,-0.372 0.678,-0.669 1.062,-0.89c0.384,-0.222 0.744,-0.399 1.081,-0.533c0.337,-0.135 0.742,-0.23 1.216,-0.288c0.473,-0.057 0.87,-0.097 1.191,-0.119c0.321,-0.021 0.755,-0.035 1.305,-0.042c0.549,-0.006 0.976,-0.021 1.281,-0.042Z" style="fill:#fff;fill-rule:nonzero;"/><path d="M22.329,28.987c0.019,0.009 0.044,0.02 0.074,0.035c0.03,0.015 0.057,0.031 0.082,0.048c0.026,0.018 0.048,0.037 0.067,0.057c0.019,0.02 0.028,0.04 0.028,0.059c0,0.01 -0.005,0.021 -0.014,0.032c-0.177,0.21 -0.367,0.393 -0.57,0.548c-0.203,0.155 -0.414,0.284 -0.634,0.388c-0.219,0.104 -0.442,0.181 -0.669,0.231c-0.227,0.05 -0.45,0.075 -0.671,0.075c-0.378,0 -0.725,-0.067 -1.04,-0.199c-0.315,-0.132 -0.587,-0.312 -0.814,-0.542c-0.226,-0.229 -0.404,-0.498 -0.531,-0.806c-0.128,-0.309 -0.192,-0.64 -0.192,-0.993c0,-0.289 0.037,-0.577 0.111,-0.866c0.074,-0.288 0.181,-0.563 0.322,-0.825c0.14,-0.261 0.311,-0.504 0.513,-0.73c0.201,-0.225 0.431,-0.42 0.688,-0.586c0.257,-0.166 0.539,-0.296 0.846,-0.39c0.307,-0.095 0.638,-0.142 0.991,-0.142c0.233,0 0.455,0.027 0.666,0.081c0.212,0.054 0.397,0.132 0.556,0.233c0.159,0.101 0.286,0.226 0.381,0.374c0.094,0.148 0.141,0.317 0.141,0.505c0,0.275 -0.104,0.515 -0.314,0.72c-0.21,0.205 -0.499,0.379 -0.868,0.522c-0.368,0.143 -0.803,0.258 -1.302,0.346c-0.5,0.087 -1.04,0.153 -1.62,0.196l0,0.068c0,0.346 0.051,0.661 0.154,0.947c0.102,0.286 0.243,0.53 0.423,0.734c0.18,0.203 0.391,0.362 0.634,0.475c0.242,0.113 0.504,0.17 0.785,0.17c0.283,0 0.574,-0.06 0.872,-0.18c0.298,-0.12 0.6,-0.315 0.905,-0.585Zm-0.889,-3.247c0,-0.124 -0.024,-0.24 -0.073,-0.348c-0.049,-0.108 -0.116,-0.201 -0.203,-0.281c-0.087,-0.079 -0.19,-0.142 -0.31,-0.188c-0.12,-0.046 -0.249,-0.069 -0.388,-0.069c-0.204,0 -0.39,0.031 -0.557,0.093c-0.168,0.062 -0.317,0.147 -0.45,0.253c-0.132,0.107 -0.249,0.231 -0.35,0.372c-0.1,0.142 -0.186,0.292 -0.257,0.451c-0.071,0.159 -0.129,0.322 -0.173,0.49c-0.044,0.167 -0.076,0.33 -0.094,0.489c0.447,-0.027 0.848,-0.074 1.203,-0.14c0.355,-0.066 0.654,-0.151 0.898,-0.254c0.245,-0.104 0.431,-0.228 0.561,-0.372c0.129,-0.145 0.193,-0.31 0.193,-0.496Z" style="fill:#fff;fill-rule:nonzero;"/><path d="M27.455,26.084c0,-0.213 -0.041,-0.398 -0.123,-0.554c-0.082,-0.157 -0.189,-0.285 -0.322,-0.384c-0.132,-0.1 -0.282,-0.174 -0.449,-0.223c-0.167,-0.048 -0.334,-0.073 -0.501,-0.073c-0.224,0 -0.413,0.021 -0.567,0.061c-0.155,0.041 -0.28,0.096 -0.376,0.166c-0.096,0.07 -0.166,0.153 -0.208,0.249c-0.043,0.095 -0.064,0.198 -0.064,0.309c0,0.129 0.027,0.259 0.083,0.39c0.055,0.131 0.136,0.258 0.243,0.382l-0.019,0.045c-0.179,0.075 -0.361,0.113 -0.544,0.113c-0.107,0 -0.207,-0.014 -0.3,-0.042c-0.093,-0.029 -0.173,-0.07 -0.241,-0.124c-0.068,-0.054 -0.121,-0.12 -0.161,-0.198c-0.039,-0.078 -0.059,-0.166 -0.059,-0.263c0,-0.159 0.045,-0.308 0.135,-0.449c0.09,-0.14 0.209,-0.268 0.357,-0.384c0.148,-0.116 0.32,-0.22 0.515,-0.311c0.196,-0.092 0.398,-0.169 0.606,-0.233c0.208,-0.063 0.416,-0.112 0.626,-0.145c0.21,-0.034 0.404,-0.051 0.584,-0.051c0.331,0 0.614,0.038 0.849,0.113c0.235,0.076 0.425,0.186 0.572,0.33c0.146,0.144 0.254,0.319 0.321,0.524c0.068,0.205 0.102,0.436 0.102,0.695c0,0.178 -0.009,0.374 -0.026,0.587c-0.017,0.213 -0.037,0.436 -0.059,0.669c-0.022,0.233 -0.042,0.474 -0.059,0.722c-0.018,0.248 -0.026,0.494 -0.026,0.74c0,0.388 0.084,0.68 0.253,0.875c0.168,0.196 0.39,0.294 0.664,0.294c0.243,0 0.514,-0.077 0.813,-0.231l0.138,0.174c-0.212,0.181 -0.442,0.318 -0.691,0.412c-0.249,0.095 -0.51,0.142 -0.785,0.142c-0.205,0 -0.394,-0.03 -0.567,-0.089c-0.173,-0.059 -0.323,-0.148 -0.449,-0.265c-0.126,-0.117 -0.224,-0.265 -0.293,-0.443c-0.07,-0.178 -0.104,-0.384 -0.104,-0.618c0,-0.071 0.002,-0.141 0.007,-0.211c0.004,-0.07 0.015,-0.144 0.03,-0.222l-0.028,0c-0.136,0.232 -0.292,0.46 -0.471,0.685c-0.178,0.225 -0.373,0.426 -0.586,0.603c-0.213,0.176 -0.44,0.319 -0.681,0.429c-0.241,0.109 -0.494,0.163 -0.759,0.163c-0.217,0 -0.416,-0.032 -0.595,-0.097c-0.18,-0.064 -0.334,-0.153 -0.461,-0.267c-0.128,-0.113 -0.227,-0.247 -0.298,-0.402c-0.071,-0.155 -0.107,-0.324 -0.107,-0.508c0,-0.237 0.052,-0.452 0.154,-0.647c0.102,-0.194 0.244,-0.368 0.426,-0.521c0.181,-0.154 0.398,-0.287 0.65,-0.399c0.252,-0.111 0.526,-0.205 0.822,-0.279c0.297,-0.074 0.61,-0.129 0.941,-0.165c0.331,-0.037 0.669,-0.055 1.012,-0.055c0.022,-0.17 0.04,-0.334 0.055,-0.493c0.014,-0.159 0.021,-0.335 0.021,-0.526Zm-2.903,2.778c0,0.105 0.013,0.206 0.04,0.301c0.027,0.096 0.069,0.18 0.128,0.253c0.058,0.073 0.132,0.13 0.222,0.172c0.09,0.042 0.198,0.063 0.324,0.063c0.142,0 0.288,-0.029 0.439,-0.085c0.152,-0.057 0.301,-0.135 0.447,-0.235c0.147,-0.1 0.287,-0.219 0.421,-0.358c0.134,-0.139 0.255,-0.29 0.362,-0.455c0.107,-0.164 0.196,-0.337 0.267,-0.519c0.071,-0.182 0.117,-0.369 0.139,-0.56c-0.233,0.005 -0.465,0.018 -0.695,0.038c-0.23,0.02 -0.448,0.052 -0.655,0.095c-0.206,0.043 -0.397,0.1 -0.574,0.17c-0.177,0.07 -0.329,0.157 -0.456,0.261c-0.128,0.104 -0.228,0.226 -0.301,0.368c-0.072,0.141 -0.108,0.305 -0.108,0.491Z" style="fill:#fff;fill-rule:nonzero;"/><path d="M32.869,21.498c-0.133,0.512 -0.244,1.041 -0.334,1.587c-0.089,0.546 -0.166,1.085 -0.229,1.616c0.148,0.005 0.293,0.009 0.433,0.012c0.14,0.003 0.271,0.005 0.392,0.008c0.122,0.003 0.232,0.004 0.331,0.004c0.1,0 0.182,0 0.248,0c0.287,0 0.522,-0.015 0.705,-0.044c0.016,0.045 0.028,0.087 0.038,0.125c0.009,0.038 0.014,0.073 0.014,0.105c0,0.119 -0.058,0.196 -0.173,0.231c-0.115,0.035 -0.281,0.052 -0.498,0.052c-0.208,0 -0.441,-0.011 -0.698,-0.032c-0.257,-0.022 -0.538,-0.042 -0.844,-0.061c-0.035,0.289 -0.064,0.57 -0.087,0.843c-0.024,0.274 -0.043,0.532 -0.057,0.775c-0.014,0.242 -0.025,0.468 -0.031,0.675c-0.006,0.208 -0.009,0.388 -0.009,0.542c0,0.288 0.017,0.546 0.052,0.772c0.034,0.227 0.096,0.419 0.184,0.577c0.088,0.157 0.21,0.278 0.364,0.362c0.155,0.083 0.35,0.125 0.587,0.125c0.17,0 0.36,-0.026 0.569,-0.077c0.21,-0.051 0.449,-0.133 0.717,-0.247c0.085,0.073 0.134,0.162 0.146,0.267c-0.195,0.111 -0.392,0.211 -0.591,0.302c-0.198,0.09 -0.394,0.168 -0.586,0.232c-0.192,0.065 -0.378,0.115 -0.558,0.15c-0.18,0.035 -0.35,0.052 -0.511,0.052c-0.211,0 -0.404,-0.033 -0.579,-0.099c-0.175,-0.066 -0.326,-0.183 -0.454,-0.351c-0.128,-0.169 -0.227,-0.396 -0.298,-0.682c-0.071,-0.286 -0.106,-0.647 -0.106,-1.084c0,-0.245 0.005,-0.498 0.014,-0.758c0.01,-0.26 0.022,-0.524 0.038,-0.791c0.016,-0.266 0.036,-0.533 0.061,-0.8c0.026,-0.267 0.054,-0.53 0.085,-0.789c-0.249,0.003 -0.479,0.012 -0.692,0.026c-0.213,0.015 -0.395,0.039 -0.546,0.071c-0.01,-0.016 -0.015,-0.035 -0.015,-0.056c0,-0.057 0.033,-0.11 0.097,-0.16c0.065,-0.05 0.155,-0.095 0.27,-0.136c0.115,-0.04 0.253,-0.074 0.414,-0.101c0.16,-0.027 0.337,-0.046 0.529,-0.056c0.073,-0.564 0.15,-1.096 0.232,-1.598c0.082,-0.501 0.164,-0.949 0.246,-1.342c0.016,-0.07 0.045,-0.128 0.087,-0.174c0.043,-0.046 0.092,-0.083 0.149,-0.109c0.057,-0.027 0.118,-0.046 0.185,-0.057c0.066,-0.011 0.13,-0.016 0.193,-0.016c0.104,0 0.198,0.009 0.282,0.028c0.083,0.019 0.161,0.046 0.234,0.081Z" style="fill:#fff;fill-rule:nonzero;"/><path d="M36.562,28.094c0.242,-0.682 0.5,-1.261 0.773,-1.735c0.272,-0.475 0.55,-0.86 0.832,-1.155c0.282,-0.295 0.563,-0.509 0.844,-0.641c0.28,-0.132 0.548,-0.198 0.804,-0.198c0.176,0 0.346,0.029 0.51,0.087c0.164,0.058 0.31,0.148 0.438,0.269c0.127,0.121 0.229,0.278 0.305,0.469c0.075,0.192 0.113,0.421 0.113,0.688c0,0.08 -0.005,0.19 -0.016,0.329c-0.011,0.139 -0.025,0.294 -0.041,0.465c-0.015,0.171 -0.033,0.351 -0.054,0.54c-0.02,0.189 -0.039,0.375 -0.054,0.558c-0.016,0.184 -0.029,0.357 -0.04,0.522c-0.012,0.164 -0.017,0.306 -0.017,0.425c0,0.21 0.01,0.381 0.031,0.513c0.02,0.132 0.054,0.237 0.101,0.314c0.048,0.076 0.111,0.129 0.189,0.157c0.079,0.029 0.175,0.043 0.289,0.043c0.164,0 0.334,-0.02 0.511,-0.059c0.176,-0.039 0.354,-0.094 0.534,-0.164l0.09,0.211c-0.114,0.078 -0.257,0.157 -0.431,0.238c-0.173,0.081 -0.355,0.155 -0.546,0.223c-0.19,0.067 -0.38,0.122 -0.569,0.163c-0.19,0.042 -0.357,0.063 -0.502,0.063c-0.17,0 -0.304,-0.039 -0.402,-0.117c-0.097,-0.078 -0.171,-0.185 -0.219,-0.32c-0.049,-0.134 -0.081,-0.292 -0.095,-0.473c-0.014,-0.18 -0.021,-0.375 -0.021,-0.582c0,-0.251 0.01,-0.51 0.03,-0.777c0.021,-0.267 0.043,-0.523 0.067,-0.768c0.023,-0.245 0.045,-0.47 0.066,-0.673c0.02,-0.204 0.031,-0.368 0.031,-0.492c0,-0.299 -0.068,-0.523 -0.204,-0.673c-0.135,-0.15 -0.318,-0.224 -0.548,-0.224c-0.18,0 -0.371,0.066 -0.575,0.198c-0.203,0.132 -0.405,0.313 -0.605,0.544c-0.2,0.23 -0.393,0.502 -0.579,0.817c-0.186,0.314 -0.353,0.653 -0.501,1.019c-0.148,0.365 -0.271,0.747 -0.369,1.146c-0.098,0.399 -0.159,0.798 -0.185,1.197l-1.007,0.105l-0.075,-0.004c0.019,-0.318 0.04,-0.669 0.063,-1.053c0.024,-0.384 0.049,-0.792 0.076,-1.224c0.027,-0.431 0.055,-0.88 0.085,-1.348c0.03,-0.468 0.06,-0.945 0.09,-1.43c0.03,-0.485 0.061,-0.974 0.092,-1.468c0.032,-0.493 0.063,-0.98 0.093,-1.462c0.029,-0.481 0.059,-0.952 0.087,-1.413c0.028,-0.461 0.055,-0.902 0.08,-1.323c0.004,-0.064 0.026,-0.12 0.067,-0.167c0.041,-0.048 0.093,-0.085 0.158,-0.114c0.065,-0.028 0.138,-0.049 0.22,-0.062c0.082,-0.014 0.167,-0.02 0.255,-0.02c0.189,0 0.388,0.043 0.596,0.129c-0.073,0.55 -0.137,1.055 -0.194,1.514c-0.057,0.46 -0.108,0.886 -0.154,1.278c-0.045,0.393 -0.086,0.759 -0.123,1.098c-0.036,0.34 -0.069,0.666 -0.099,0.977c-0.03,0.311 -0.057,0.615 -0.083,0.912c-0.025,0.296 -0.05,0.598 -0.075,0.904c-0.025,0.306 -0.051,0.624 -0.078,0.954c-0.027,0.33 -0.056,0.686 -0.088,1.066l0.029,0.004Z" style="fill:#fff;fill-rule:nonzero;"/><path d="M47.947,28.987c0.019,0.009 0.044,0.02 0.074,0.035c0.03,0.015 0.057,0.031 0.082,0.048c0.026,0.018 0.048,0.037 0.067,0.057c0.019,0.02 0.028,0.04 0.028,0.059c0,0.01 -0.005,0.021 -0.014,0.032c-0.177,0.21 -0.367,0.393 -0.57,0.548c-0.203,0.155 -0.414,0.284 -0.634,0.388c-0.219,0.104 -0.442,0.181 -0.669,0.231c-0.227,0.05 -0.45,0.075 -0.671,0.075c-0.378,0 -0.725,-0.067 -1.04,-0.199c-0.315,-0.132 -0.587,-0.312 -0.814,-0.542c-0.226,-0.229 -0.404,-0.498 -0.531,-0.806c-0.128,-0.309 -0.192,-0.64 -0.192,-0.993c0,-0.289 0.037,-0.577 0.111,-0.866c0.074,-0.288 0.181,-0.563 0.322,-0.825c0.14,-0.261 0.311,-0.504 0.513,-0.73c0.201,-0.225 0.431,-0.42 0.688,-0.586c0.257,-0.166 0.539,-0.296 0.846,-0.39c0.307,-0.095 0.638,-0.142 0.991,-0.142c0.233,0 0.455,0.027 0.666,0.081c0.212,0.054 0.397,0.132 0.556,0.233c0.159,0.101 0.286,0.226 0.381,0.374c0.094,0.148 0.141,0.317 0.141,0.505c0,0.275 -0.104,0.515 -0.314,0.72c-0.21,0.205 -0.499,0.379 -0.868,0.522c-0.368,0.143 -0.803,0.258 -1.302,0.346c-0.5,0.087 -1.04,0.153 -1.62,0.196l0,0.068c0,0.346 0.051,0.661 0.154,0.947c0.102,0.286 0.243,0.53 0.423,0.734c0.18,0.203 0.391,0.362 0.634,0.475c0.242,0.113 0.504,0.17 0.785,0.17c0.283,0 0.574,-0.06 0.872,-0.18c0.298,-0.12 0.6,-0.315 0.905,-0.585Zm-0.889,-3.247c0,-0.124 -0.024,-0.24 -0.073,-0.348c-0.049,-0.108 -0.116,-0.201 -0.203,-0.281c-0.087,-0.079 -0.19,-0.142 -0.31,-0.188c-0.12,-0.046 -0.249,-0.069 -0.388,-0.069c-0.204,0 -0.39,0.031 -0.557,0.093c-0.168,0.062 -0.317,0.147 -0.45,0.253c-0.132,0.107 -0.249,0.231 -0.35,0.372c-0.1,0.142 -0.186,0.292 -0.257,0.451c-0.071,0.159 -0.129,0.322 -0.173,0.49c-0.044,0.167 -0.076,0.33 -0.094,0.489c0.447,-0.027 0.848,-0.074 1.203,-0.14c0.355,-0.066 0.654,-0.151 0.898,-0.254c0.245,-0.104 0.431,-0.228 0.561,-0.372c0.129,-0.145 0.193,-0.31 0.193,-0.496Z" style="fill:#fff;fill-rule:nonzero;"/><path d="M49.834,30.346l-0.076,-0.004c0.026,-0.256 0.049,-0.535 0.071,-0.837c0.022,-0.302 0.043,-0.609 0.062,-0.92c0.019,-0.311 0.035,-0.62 0.049,-0.926c0.015,-0.306 0.027,-0.592 0.038,-0.857c0.011,-0.266 0.019,-0.504 0.024,-0.714c0.005,-0.21 0.007,-0.376 0.007,-0.498c0,-0.099 -0.005,-0.186 -0.014,-0.258c-0.01,-0.073 -0.031,-0.134 -0.064,-0.182c-0.033,-0.049 -0.081,-0.085 -0.144,-0.107c-0.063,-0.023 -0.148,-0.035 -0.256,-0.035c-0.053,0 -0.108,0.003 -0.165,0.008c-0.057,0.006 -0.12,0.014 -0.189,0.024c-0.07,0.011 -0.148,0.025 -0.234,0.043c-0.087,0.017 -0.187,0.038 -0.301,0.063l-0.07,-0.292c0.523,-0.161 0.947,-0.275 1.271,-0.341c0.325,-0.066 0.544,-0.099 0.658,-0.099c0.208,0 0.357,0.052 0.447,0.155c0.089,0.104 0.134,0.259 0.134,0.463c0,0.019 -0.003,0.075 -0.009,0.166c-0.006,0.092 -0.015,0.211 -0.026,0.358c-0.011,0.147 -0.025,0.318 -0.04,0.512c-0.016,0.194 -0.034,0.402 -0.055,0.624c-0.02,0.223 -0.043,0.455 -0.068,0.696c-0.026,0.241 -0.052,0.482 -0.081,0.722l0.048,0.004c0.151,-0.528 0.322,-1.021 0.513,-1.478c0.19,-0.457 0.405,-0.854 0.643,-1.191c0.238,-0.337 0.499,-0.602 0.785,-0.795c0.285,-0.193 0.598,-0.289 0.938,-0.289c0.12,0 0.232,0.016 0.336,0.049c0.104,0.032 0.194,0.077 0.269,0.135c0.076,0.058 0.136,0.127 0.18,0.206c0.044,0.08 0.066,0.167 0.066,0.261c0,0.122 -0.031,0.238 -0.092,0.35c-0.061,0.112 -0.158,0.211 -0.291,0.297l-0.038,0c-0.132,-0.094 -0.257,-0.162 -0.375,-0.204c-0.119,-0.042 -0.244,-0.063 -0.376,-0.063c-0.142,0 -0.279,0.023 -0.412,0.069c-0.132,0.046 -0.254,0.112 -0.364,0.198c-0.18,0.14 -0.347,0.326 -0.501,0.556c-0.154,0.231 -0.296,0.486 -0.423,0.767c-0.128,0.28 -0.243,0.575 -0.345,0.883c-0.103,0.309 -0.191,0.61 -0.265,0.902c-0.074,0.293 -0.134,0.568 -0.18,0.825c-0.046,0.258 -0.078,0.474 -0.097,0.649l-0.988,0.105Z" style="fill:#fff;fill-rule:nonzero;"/></g><defs><linearGradient id="_Linear1" x1="0" y1="0" x2="1" y2="0" gradientUnits="userSpaceOnUse" gradientTransform="matrix(19.0036,-32.9292,24.4717,25.5713,8.60433,35.6562)"><stop offset="0" style="stop-color:#832778;stop-opacity:1"/><stop offset="0.22" style="stop-color:#b21f4f;stop-opacity:1"/><stop offset="0.56" style="stop-color:#db4d2e;stop-opacity:1"/><stop offset="1" style="stop-color:#f3bc23;stop-opacity:1"/></linearGradient></defs></svg>