<?xml version="1.0" encoding="UTF-8" standalone="no"?><!DOCTYPE svg PUBLIC "-//W3C//DTD SVG 1.1//EN" "http://www.w3.org/Graphics/SVG/1.1/DTD/svg11.dtd"><svg width="100%" height="100%" viewBox="0 0 63 43" version="1.1" xmlns="http://www.w3.org/2000/svg" xmlns:xlink="http://www.w3.org/1999/xlink" xml:space="preserve" style="fill-rule:evenodd;clip-rule:evenodd;stroke-linejoin:round;stroke-miterlimit:1.41421;"><g><g><path d="M8.697,21.569c0.687,-1.919 1.524,-3.906 2.506,-5.906c0.191,-0.387 0.384,-0.769 0.579,-1.147l3.04,4.742l-1.87,-6.886c0.639,-1.114 1.297,-2.173 1.966,-3.166l1.288,4.75l0.2,-6.834c1.277,-1.682 2.569,-3.116 3.818,-4.246l-0.602,7.151l2.247,-8.481c2.054,-1.452 3.91,-1.945 5.282,-1.205c1.082,0.585 1.743,1.873 2.006,3.666l-4.275,5.031l4.397,-3.619c0.088,2.606 -0.472,5.965 -1.63,9.657l-5.791,4.182l5.088,-2.103c-0.672,1.854 -1.484,3.769 -2.43,5.697c-2.254,4.588 -4.898,8.487 -7.466,11.247l-3.718,1.97l2.364,-0.613c-2.774,2.571 -5.355,3.675 -7.128,2.718c-2.424,-1.309 -2.734,-6.145 -1.192,-12.283l3.336,4.569l-2.015,-8.891Z" style="fill:url(#_Linear1);"/><text x="56.217px" y="25.177px" style="font-family:'OpenSans-Bold', 'Open Sans', sans-serif;font-weight:700;font-size:6.053px;fill:#df5dac;">TS</text><path d="M26.218,10.027c0.488,0.08 0.729,0.371 0.723,0.871c-0.003,0.351 -0.106,0.694 -0.308,1.03c-0.202,0.336 -0.41,0.503 -0.623,0.501c-0.031,-0.001 -0.121,-0.133 -0.271,-0.398c-0.149,-0.264 -0.398,-0.524 -0.746,-0.778c-0.349,-0.254 -0.782,-0.384 -1.3,-0.39c-1.465,-0.015 -2.54,0.674 -3.226,2.069c-1.373,2.815 -2.438,5.421 -3.196,7.817l4.484,0.048c0.854,0.009 1.28,0.089 1.279,0.239c-0.003,0.251 -0.707,0.437 -2.111,0.56c-1.405,0.123 -2.748,0.177 -4.029,0.163c-0.125,0.249 -0.509,1.247 -1.154,2.993c-0.644,1.746 -1.366,3.698 -2.168,5.856c-0.801,2.157 -1.405,3.747 -1.813,4.77c-1.035,2.593 -2.298,4.426 -3.789,5.5c-1.491,1.073 -2.984,1.602 -4.479,1.585c-2.349,-0.025 -3.512,-1.039 -3.491,-3.042c0.008,-0.701 0.144,-1.351 0.41,-1.949c0.266,-0.598 0.506,-0.896 0.719,-0.894c0.122,0.001 0.198,0.077 0.227,0.228c-0.067,0.5 -0.101,0.85 -0.103,1.05c-0.013,1.152 0.252,2.082 0.793,2.789c0.542,0.707 1.209,1.065 2.002,1.073c0.733,0.008 1.483,-0.303 2.253,-0.934c0.769,-0.63 1.481,-1.593 2.136,-2.888c0.873,-1.743 2.055,-4.536 3.545,-8.376c1.491,-3.841 2.441,-6.385 2.851,-7.633c-0.733,0.093 -1.756,0.132 -3.067,0.118c-0.702,-0.008 -1.051,-0.124 -1.049,-0.35c0.002,-0.175 0.202,-0.38 0.602,-0.613c0.399,-0.234 0.72,-0.349 0.964,-0.347l2.929,0.032c1.447,-4.067 2.435,-6.56 2.963,-7.481c0.28,-0.498 0.582,-0.933 0.907,-1.305c0.324,-0.372 0.678,-0.669 1.062,-0.89c0.384,-0.222 0.744,-0.399 1.081,-0.533c0.337,-0.135 0.742,-0.23 1.216,-0.288c0.473,-0.057 0.87,-0.097 1.191,-0.119c0.321,-0.021 0.755,-0.035 1.305,-0.042c0.549,-0.006 0.976,-0.021 1.281,-0.042Z" style="fill:#fff;fill-rule:nonzero;"/><text x="16.953px" y="30.241px" style="font-family:'Gabriola', fantasy;font-size:16.564px;fill:#fff;">e<tspan x="22.92px 29.847px 34.543px 42.571px 48.538px " y="30.241px 30.241px 30.241px 30.241px 30.241px ">ather</tspan></text></g></g><defs><linearGradient id="_Linear1" x1="0" y1="0" x2="1" y2="0" gradientUnits="userSpaceOnUse" gradientTransform="matrix(19.0036,-32.9292,24.4717,25.5713,8.60433,35.6562)"><stop offset="0" style="stop-color:#832778;stop-opacity:1"/><stop offset="0.22" style="stop-color:#b21f4f;stop-opacity:1"/><stop offset="0.56" style="stop-color:#db4d2e;stop-opacity:1"/><stop offset="1" style="stop-color:#f3bc23;stop-opacity:1"/></linearGradient></defs></svg>